<svg width="2646" height="5367" xmlns="http://www.w3.org/2000/svg" xmlns:xlink="http://www.w3.org/1999/xlink" overflow="hidden"><defs><clipPath id="clip0"><rect x="0" y="0" width="2646" height="5367"/></clipPath></defs><g clip-path="url(#clip0)"><rect x="0" y="0" width="2646" height="5367.32" fill="#27374D"/><text fill="#FFFFFF" font-family="Calibri,Calibri_MSFontService,sans-serif" font-weight="700" font-size="131" transform="matrix(1 0 0 0.999874 542.385 227)">M</text><text fill="#FFFFFF" font-family="Calibri,Calibri_MSFontService,sans-serif" font-weight="700" font-size="131" transform="matrix(1 0 0 0.999874 657.233 227)">a</text><text fill="#FFFFFF" font-family="Calibri,Calibri_MSFontService,sans-serif" font-weight="700" font-size="131" transform="matrix(1 0 0 0.999874 722.074 227)">ke</text><text fill="#FFFFFF" font-family="Calibri,Calibri_MSFontService,sans-serif" font-weight="700" font-size="131" transform="matrix(1 0 0 0.999874 877.501 227)">your access watertight</text><text fill="#FFFFFF" font-family="Calibri,Calibri_MSFontService,sans-serif" font-weight="700" font-size="82" transform="matrix(1 0 0 0.999874 772.467 339)">with</text><text fill="#FFFFFF" font-family="Calibri,Calibri_MSFontService,sans-serif" font-weight="700" font-size="82" transform="matrix(1 0 0 0.999874 944.989 339)">Entra</text><text fill="#FFFFFF" font-family="Calibri,Calibri_MSFontService,sans-serif" font-weight="700" font-size="82" transform="matrix(1 0 0 0.999874 1143.45 339)">ID Conditional Access</text><path d="M57 528.267C57 522.561 61.6265 517.935 67.3335 517.935L688.666 517.935C694.373 517.935 699 522.561 699 528.267L699 569.595C699 575.301 694.373 579.927 688.666 579.927L67.3335 579.927C61.6265 579.927 57 575.301 57 569.595Z" fill="#FFFFFF" fill-rule="evenodd"/><text fill="#545454" font-family="Calibri,Calibri_MSFontService,sans-serif" font-weight="700" font-size="33" transform="matrix(1 0 0 0.999874 84.2642 560)">Can you fully block access for this persona?</text><path d="M1876 541.266C1876 535.559 1880.63 530.933 1886.33 530.933L2326.67 530.933C2332.37 530.933 2337 535.559 2337 541.266L2337 582.593C2337 588.299 2332.37 592.925 2326.67 592.925L1886.33 592.925C1880.63 592.925 1876 588.299 1876 582.593Z" fill="#FFFFFF" fill-rule="evenodd"/><text fill="#545454" font-family="Calibri,Calibri_MSFontService,sans-serif" font-weight="700" font-size="33" transform="matrix(1 0 0 0.999874 1895.51 573)">Can you require MFA strength?</text><path d="M1339 1215.01C1339 1209.4 1343.55 1204.85 1349.17 1204.85L1847.83 1204.85C1853.45 1204.85 1858 1209.4 1858 1215.01L1858 1255.68C1858 1261.29 1853.45 1265.84 1847.83 1265.84L1349.17 1265.84C1343.55 1265.84 1339 1261.29 1339 1255.68Z" fill="#FFFFFF" fill-rule="evenodd"/><text fill="#545454" font-family="Calibri,Calibri_MSFontService,sans-serif" font-weight="700" font-size="33" transform="matrix(1 0 0 0.999874 1351.31 1247)">Can you require a compliant device?</text><path d="M1057 3097.78C1057 3087.19 1065.58 3078.61 1076.17 3078.61L1489.83 3078.61C1500.42 3078.61 1509 3087.19 1509 3097.78L1509 3174.43C1509 3185.02 1500.42 3193.6 1489.83 3193.6L1076.17 3193.6C1065.58 3193.6 1057 3185.02 1057 3174.43Z" fill="#FFFFFF" fill-rule="evenodd"/><text fill="#545454" font-family="Calibri,Calibri_MSFontService,sans-serif" font-weight="700" font-size="33" transform="matrix(1 0 0 0.999874 1081.49 3128)">Can you use an IP allowlist, IP</text><text fill="#545454" font-family="Calibri,Calibri_MSFontService,sans-serif" font-weight="700" font-size="33" transform="matrix(1 0 0 0.999874 1089.66 3167)">blacklist or trusted location?</text><text fill="#FFFFFF" font-family="Calibri,Calibri_MSFontService,sans-serif" font-weight="700" font-size="39" transform="matrix(1 0 0 0.999874 817.745 5312)">Enthusiastic but becomes to complicated? Contact me!</text><text fill="#FFFFFF" font-family="Calibri,Calibri_MSFontService,sans-serif" font-weight="700" font-size="33" transform="matrix(1 0 0 0.999874 748.284 400)">Decision flow: For each persona in your environment (each group of users [regular</text><text fill="#FFFFFF" font-family="Calibri,Calibri_MSFontService,sans-serif" font-weight="700" font-size="33" transform="matrix(1 0 0 0.999874 713.7 439)">users, ADM users, DEV users, specific types of service account]). Try to be as specific as</text><text fill="#FFFFFF" font-family="Calibri,Calibri_MSFontService,sans-serif" font-weight="700" font-size="33" transform="matrix(1 0 0 0.999874 1251.48 479)">possible</text><path d="M747.778 770.638 695.038 598.794 703.962 596.056 756.702 767.9ZM766.639 748.54 754.319 776.044 728.69 760.183C726.498 758.827 725.821 755.951 727.178 753.759 728.534 751.568 731.411 750.891 733.603 752.247L754.696 765.301 747.98 767.362 758.12 744.725C759.174 742.372 761.935 741.32 764.288 742.373 766.64 743.427 767.693 746.187 766.639 748.54Z" fill="#00B050"/><path d="M743.5 800.899C743.5 796.758 746.858 793.4 751 793.4L898 793.4C902.142 793.4 905.5 796.758 905.5 800.899L905.5 830.895C905.5 835.037 902.142 838.394 898 838.394L751 838.394C746.858 838.394 743.5 835.037 743.5 830.895Z" stroke="#FFFFFF" stroke-width="2.667" stroke-linejoin="round" stroke-miterlimit="10" fill="#27374D" fill-rule="evenodd"/><text fill="#FFFFFF" font-family="Calibri,Calibri_MSFontService,sans-serif" font-weight="700" font-size="24" transform="matrix(1 0 0 0.999874 763.449 823)">Block access</text><path d="M867 781.402C867 779.469 868.567 777.902 870.5 777.902L930.5 777.902C932.433 777.902 934 779.469 934 781.402L934 795.4C934 797.332 932.433 798.899 930.5 798.899L870.5 798.899C868.567 798.899 867 797.332 867 795.4Z" fill="#CBD6E5" fill-rule="evenodd"/><text fill="#27374D" font-family="Calibri,Calibri_MSFontService,sans-serif" font-weight="700" font-size="16" transform="matrix(1 0 0 0.999874 880.168 794)">action</text><path d="M697.5 660.25C697.5 657.029 700.112 654.418 703.334 654.418L758.667 654.418C761.888 654.418 764.5 657.029 764.5 660.25L764.5 683.58C764.5 686.802 761.888 689.413 758.667 689.413L703.334 689.413C700.112 689.413 697.5 686.802 697.5 683.58Z" stroke="#00B050" stroke-width="2.667" stroke-linejoin="round" stroke-miterlimit="10" fill="#27374D" fill-rule="evenodd"/><text fill="#00B050" font-family="Calibri,Calibri_MSFontService,sans-serif" font-weight="700" font-size="24" transform="matrix(1 0 0 0.999874 713.326 679)">YES</text><path d="M997.013 563.149 722.431 559.096 722.569 549.764 997.151 553.817ZM981.781 538.41 1004.17 558.588 981.195 578.096C979.23 579.764 976.285 579.524 974.617 577.56 972.948 575.595 973.188 572.65 975.153 570.982L994.061 554.926 993.957 561.949 975.531 545.342C973.617 543.617 973.464 540.666 975.19 538.751 976.915 536.837 979.867 536.684 981.781 538.41Z" fill="#FF914D"/><path d="M828.5 546.598C828.5 543.745 830.813 541.432 833.667 541.432L879.333 541.432C882.187 541.432 884.5 543.745 884.5 546.598L884.5 567.262C884.5 570.115 882.187 572.428 879.333 572.428L833.667 572.428C830.813 572.428 828.5 570.115 828.5 567.262Z" stroke="#FF914D" stroke-width="2.667" stroke-linejoin="round" stroke-miterlimit="10" fill="#27374D" fill-rule="evenodd"/><text fill="#FF914D" font-family="Calibri,Calibri_MSFontService,sans-serif" font-weight="700" font-size="24" transform="matrix(1 0 0 0.999874 840.409 564)">NO</text><path d="M1021 538.099C1021 532.485 1025.55 527.933 1031.17 527.933L1583.83 527.933C1589.45 527.933 1594 532.485 1594 538.099L1594 578.76C1594 584.375 1589.45 588.926 1583.83 588.926L1031.17 588.926C1025.55 588.926 1021 584.375 1021 578.76Z" fill="#FFFFFF" fill-rule="evenodd"/><text fill="#545454" font-family="Calibri,Calibri_MSFontService,sans-serif" font-weight="700" font-size="33" transform="matrix(1 0 0 0.999874 1046.38 570)">Can you require MFA for this persona?</text><path d="M1391 1570.14C1391 1564.43 1395.63 1559.8 1401.33 1559.8L1813.67 1559.8C1819.37 1559.8 1824 1564.43 1824 1570.14L1824 1611.46C1824 1617.17 1819.37 1621.8 1813.67 1621.8L1401.33 1621.8C1395.63 1621.8 1391 1617.17 1391 1611.46Z" fill="#FFFFFF" fill-rule="evenodd"/><text fill="#545454" font-family="Calibri,Calibri_MSFontService,sans-serif" font-weight="700" font-size="33" transform="matrix(1 0 0 0.999874 1414.2 1601)">Can you require a device ID?</text><path d="M1307 1921.09C1307 1915.39 1311.63 1910.76 1317.33 1910.76L1920.67 1910.76C1926.37 1910.76 1931 1915.39 1931 1921.09L1931 1962.42C1931 1968.13 1926.37 1972.75 1920.67 1972.75L1317.33 1972.75C1311.63 1972.75 1307 1968.13 1307 1962.42Z" fill="#FFFFFF" fill-rule="evenodd"/><text fill="#545454" font-family="Calibri,Calibri_MSFontService,sans-serif" font-weight="700" font-size="33" transform="matrix(1 0 0 0.999874 1328.47 1952)">Can you use a devices</text><text fill="#545454" font-family="Calibri,Calibri_MSFontService,sans-serif" font-weight="700" font-size="33" transform="matrix(1 0 0 0.999874 1632.16 1952)">Extention</text><text fill="#545454" font-family="Calibri,Calibri_MSFontService,sans-serif" font-weight="700" font-size="33" transform="matrix(1 0 0 0.999874 1770.3 1952)">Attribute?</text><path d="M1501 2642.83C1501 2631.7 1510.03 2622.67 1521.17 2622.67L1973.83 2622.67C1984.97 2622.67 1994 2631.7 1994 2642.83L1994 2723.49C1994 2734.63 1984.97 2743.65 1973.83 2743.65L1521.17 2743.65C1510.03 2743.65 1501 2734.63 1501 2723.49Z" fill="#FFFFFF" fill-rule="evenodd"/><text fill="#545454" font-family="Calibri,Calibri_MSFontService,sans-serif" font-weight="700" font-size="33" transform="matrix(1 0 0 0.999874 1580.31 2654)">Can you require a device</text><text fill="#545454" font-family="Calibri,Calibri_MSFontService,sans-serif" font-weight="700" font-size="33" transform="matrix(1 0 0 0.999874 1552.42 2693)">manufacturer, device model,</text><text fill="#545454" font-family="Calibri,Calibri_MSFontService,sans-serif" font-weight="700" font-size="33" transform="matrix(1 0 0 0.999874 1607.34 2733)">name or ownership?</text><path d="M1061 3566.72C1061 3556.13 1069.58 3547.55 1080.17 3547.55L1450.83 3547.55C1461.42 3547.55 1470 3556.13 1470 3566.72L1470 3643.37C1470 3653.96 1461.42 3662.54 1450.83 3662.54L1080.17 3662.54C1069.58 3662.54 1061 3653.96 1061 3643.37Z" fill="#FFFFFF" fill-rule="evenodd"/><text fill="#545454" font-family="Calibri,Calibri_MSFontService,sans-serif" font-weight="700" font-size="33" transform="matrix(1 0 0 0.999874 1076.76 3596)">Can the persona be blocked</text><text fill="#545454" font-family="Calibri,Calibri_MSFontService,sans-serif" font-weight="700" font-size="33" transform="matrix(1 0 0 0.999874 1106.09 3635)">to certain applications?</text><path d="M1054 4497.43C1054 4487.49 1062.06 4479.44 1072 4479.44L1450 4479.44C1459.94 4479.44 1468 4487.49 1468 4497.43L1468 4569.42C1468 4579.36 1459.94 4587.42 1450 4587.42L1072 4587.42C1062.06 4587.42 1054 4579.36 1054 4569.42Z" fill="#FFFFFF" fill-rule="evenodd"/><text fill="#545454" font-family="Calibri,Calibri_MSFontService,sans-serif" font-weight="700" font-size="33" transform="matrix(1 0 0 0.999874 1072.15 4524)">Can the persona be blocked</text><text fill="#545454" font-family="Calibri,Calibri_MSFontService,sans-serif" font-weight="700" font-size="33" transform="matrix(1 0 0 0.999874 1150.82 4563)">on identity risk?</text><path d="M1048 4025.66C1048 4015.63 1056.13 4007.5 1066.17 4007.5L1443.83 4007.5C1453.87 4007.5 1462 4015.63 1462 4025.66L1462 4098.32C1462 4108.35 1453.87 4116.48 1443.83 4116.48L1066.17 4116.48C1056.13 4116.48 1048 4108.35 1048 4098.32Z" fill="#FFFFFF" fill-rule="evenodd"/><text fill="#545454" font-family="Calibri,Calibri_MSFontService,sans-serif" font-weight="700" font-size="33" transform="matrix(1 0 0 0.999874 1079.3 4053)">Can legacy authentication</text><text fill="#545454" font-family="Calibri,Calibri_MSFontService,sans-serif" font-weight="700" font-size="33" transform="matrix(1 0 0 0.999874 1072.35 4092)">be blocked for the persona</text><path d="M7.09763-4.65901 252.176-4.39454 252.165 4.93879 7.08756 4.67432ZM22.6655 19.8698 0.00656988 6.94936e-06 22.7084-19.8209C24.6498-21.516 27.5979-21.3162 29.2929-19.3748 30.988-17.4333 30.7883-14.4853 28.8468-12.7902L10.1626 3.52299 10.1701-3.50105 28.8192 12.8524C30.757 14.5517 30.9503 17.5001 29.2511 19.4379 27.5518 21.3757 24.6034 21.5691 22.6655 19.8698Z" fill="#00B050" transform="matrix(-1.00013 0 0 1 1859.7 562.429)"/><path d="M1686.5 552.264C1686.5 549.043 1689.11 546.431 1692.33 546.431L1747.67 546.431C1750.89 546.431 1753.5 549.043 1753.5 552.264L1753.5 575.594C1753.5 578.815 1750.89 581.427 1747.67 581.427L1692.33 581.427C1689.11 581.427 1686.5 578.815 1686.5 575.594Z" stroke="#00B050" stroke-width="2.667" stroke-linejoin="round" stroke-miterlimit="10" fill="#27374D" fill-rule="evenodd"/><text fill="#00B050" font-family="Calibri,Calibri_MSFontService,sans-serif" font-weight="700" font-size="24" transform="matrix(1 0 0 0.999874 1702.04 571)">YES</text><path d="M4.75944 7.03511 12.0898 565.351 2.75725 565.474-4.57309 7.15764ZM-19.5458 22.9456 8.62053e-05 0.00656824 20.1415 22.4245C21.864 24.3417 21.7062 27.2922 19.789 29.0147 17.8718 30.7372 14.9212 30.5794 13.1987 28.6622L-3.37826 10.2116 3.64519 10.1194-12.4417 28.9989C-14.1132 30.9606-17.0586 31.1958-19.0204 29.5243-20.9821 27.8527-21.2174 24.9073-19.5458 22.9456Z" fill="#FF914D" transform="matrix(1.00013 0 0 -1 1587.5 1171.84)"/><path d="M1566.5 735.741C1566.5 732.796 1568.89 730.408 1571.83 730.408L1617.17 730.408C1620.11 730.408 1622.5 732.796 1622.5 735.741L1622.5 757.071C1622.5 760.016 1620.11 762.404 1617.17 762.404L1571.83 762.404C1568.89 762.404 1566.5 760.016 1566.5 757.071Z" stroke="#FF914D" stroke-width="2.667" stroke-linejoin="round" stroke-miterlimit="10" fill="#27374D" fill-rule="evenodd"/><text fill="#FF914D" font-family="Calibri,Calibri_MSFontService,sans-serif" font-weight="700" font-size="24" transform="matrix(1 0 0 0.999874 1578.26 754)">NO</text><path d="M7.45035 4.07058 291.455 538.1 283.214 542.483-0.790139 8.45299ZM-6.86913 29.3488 0.0030844 0.00579929 28.1742 10.7123C30.5834 11.6279 31.7942 14.3232 30.8785 16.7324 29.9629 19.1416 27.2676 20.3524 24.8584 19.4368L1.67275 10.625 7.87435 7.32692 2.21831 31.4771C1.63059 33.9865-0.880136 35.5444-3.38956 34.9567-5.89899 34.369-7.45684 31.8582-6.86913 29.3488Z" fill="#00B050" transform="matrix(1.00013 0 0 -1 1644.5 1171.71)"/><path d="M1864.5 683.247C1864.5 680.026 1867.11 677.415 1870.33 677.415L1925.67 677.415C1928.89 677.415 1931.5 680.026 1931.5 683.247L1931.5 706.578C1931.5 709.799 1928.89 712.41 1925.67 712.41L1870.33 712.41C1867.11 712.41 1864.5 709.799 1864.5 706.578Z" stroke="#00B050" stroke-width="2.667" stroke-linejoin="round" stroke-miterlimit="10" fill="#27374D" fill-rule="evenodd"/><text fill="#00B050" font-family="Calibri,Calibri_MSFontService,sans-serif" font-weight="700" font-size="24" transform="matrix(1 0 0 0.999874 1879.98 702)">YES</text><path d="M1769.5 759.571C1769.5 753.957 1774.05 749.406 1779.67 749.406L1921.33 749.406C1926.95 749.406 1931.5 753.957 1931.5 759.571L1931.5 800.232C1931.5 805.847 1926.95 810.398 1921.33 810.398L1779.67 810.398C1774.05 810.398 1769.5 805.847 1769.5 800.232Z" stroke="#FFFFFF" stroke-width="2.667" stroke-linejoin="round" stroke-miterlimit="10" fill="#27374D" fill-rule="evenodd"/><text fill="#FFFFFF" font-family="Calibri,Calibri_MSFontService,sans-serif" font-weight="700" font-size="24" transform="matrix(1 0 0 0.999874 1811.95 773)">Require</text><text fill="#FFFFFF" font-family="Calibri,Calibri_MSFontService,sans-serif" font-weight="700" font-size="24" transform="matrix(1 0 0 0.999874 1784.08 802)">MFA strength</text><path d="M1903 742.573C1903 740.548 1904.64 738.907 1906.67 738.907L1966.33 738.907C1968.36 738.907 1970 740.548 1970 742.573L1970 757.238C1970 759.263 1968.36 760.904 1966.33 760.904L1906.67 760.904C1904.64 760.904 1903 759.263 1903 757.238Z" fill="#CBD6E5" fill-rule="evenodd"/><text fill="#27374D" font-family="Calibri,Calibri_MSFontService,sans-serif" font-weight="700" font-size="16" transform="matrix(1 0 0 0.999874 1916.56 755)">action</text><path d="M8.14995 2.36857 474.212 549.254 467.108 555.308 1.04627 8.4224ZM-0.38907 30.1394 0.00426058 0.00499959 29.8198 4.39499C32.3696 4.77043 34.1323 7.14183 33.7569 9.69167 33.3815 12.2415 31.0101 14.0042 28.4602 13.6288L3.92114 10.0157 9.26719 5.45969 8.94347 30.2612C8.90983 32.8384 6.7934 34.9002 4.21629 34.8666 1.63918 34.833-0.422708 32.7165-0.38907 30.1394Z" fill="#FF914D" transform="matrix(1.00013 0 0 -1 1737.5 1171.7)"/><path d="M1942.5 890.721C1942.5 887.776 1944.89 885.388 1947.83 885.388L1994.17 885.388C1997.11 885.388 1999.5 887.776 1999.5 890.721L1999.5 912.052C1999.5 914.997 1997.11 917.384 1994.17 917.384L1947.83 917.384C1944.89 917.384 1942.5 914.997 1942.5 912.052Z" stroke="#FF914D" stroke-width="2.667" stroke-linejoin="round" stroke-miterlimit="10" fill="#27374D" fill-rule="evenodd"/><text fill="#FF914D" font-family="Calibri,Calibri_MSFontService,sans-serif" font-weight="700" font-size="24" transform="matrix(1 0 0 0.999874 1954.64 909)">NO</text><path d="M1846.5 959.046C1846.5 955.365 1849.48 952.38 1853.17 952.38L2001.83 952.38C2005.52 952.38 2008.5 955.365 2008.5 959.046L2008.5 985.709C2008.5 989.391 2005.52 992.375 2001.83 992.375L1853.17 992.375C1849.48 992.375 1846.5 989.391 1846.5 985.709Z" stroke="#FFFFFF" stroke-width="2.667" stroke-linejoin="round" stroke-miterlimit="10" fill="#27374D" fill-rule="evenodd"/><text fill="#FFFFFF" font-family="Calibri,Calibri_MSFontService,sans-serif" font-weight="700" font-size="24" transform="matrix(1 0 0 0.999874 1864.31 979)">Require MFA</text><path d="M1983 941.548C1983 939.523 1984.64 937.882 1986.67 937.882L2046.33 937.882C2048.36 937.882 2050 939.523 2050 941.548L2050 956.213C2050 958.238 2048.36 959.879 2046.33 959.879L1986.67 959.879C1984.64 959.879 1983 958.238 1983 956.213Z" fill="#CBD6E5" fill-rule="evenodd"/><text fill="#27374D" font-family="Calibri,Calibri_MSFontService,sans-serif" font-weight="700" font-size="16" transform="matrix(1 0 0 0.999874 1996.55 954)">action</text><path d="M1716.83 1533.7 1711.83 1286.43 1721.17 1286.24 1726.16 1533.51ZM1741.02 1517.62 1721.64 1540.69 1701.33 1518.42C1699.6 1516.51 1699.74 1513.56 1701.64 1511.82 1703.55 1510.09 1706.5 1510.23 1708.23 1512.13L1724.94 1530.46 1717.92 1530.61 1733.87 1511.61C1735.53 1509.64 1738.48 1509.38 1740.45 1511.04 1742.42 1512.7 1742.68 1515.64 1741.02 1517.62Z" fill="#FF914D"/><path d="M1688.5 1341.5C1688.5 1338.64 1690.81 1336.33 1693.67 1336.33L1739.33 1336.33C1742.19 1336.33 1744.5 1338.64 1744.5 1341.5L1744.5 1362.16C1744.5 1365.01 1742.19 1367.33 1739.33 1367.33L1693.67 1367.33C1690.81 1367.33 1688.5 1365.01 1688.5 1362.16Z" stroke="#FF914D" stroke-width="2.667" stroke-linejoin="round" stroke-miterlimit="10" fill="#27374D" fill-rule="evenodd"/><text fill="#FF914D" font-family="Calibri,Calibri_MSFontService,sans-serif" font-weight="700" font-size="24" transform="matrix(1 0 0 0.999874 1699.99 1359)">NO</text><path d="M1493.53 1533.72 1487.83 1286.45 1497.17 1286.23 1502.86 1533.5ZM1517.68 1517.56 1498.36 1540.69 1477.99 1518.47C1476.25 1516.57 1476.38 1513.62 1478.28 1511.88 1480.18 1510.14 1483.13 1510.27 1484.87 1512.17L1501.64 1530.45 1494.61 1530.62 1510.51 1511.58C1512.17 1509.6 1515.11 1509.34 1517.09 1510.99 1519.07 1512.64 1519.33 1515.58 1517.68 1517.56Z" fill="#00B050"/><path d="M1459.5 1327.17C1459.5 1323.94 1462.11 1321.33 1465.33 1321.33L1520.67 1321.33C1523.89 1321.33 1526.5 1323.94 1526.5 1327.17L1526.5 1350.5C1526.5 1353.72 1523.89 1356.33 1520.67 1356.33L1465.33 1356.33C1462.11 1356.33 1459.5 1353.72 1459.5 1350.5Z" stroke="#00B050" stroke-width="2.667" stroke-linejoin="round" stroke-miterlimit="10" fill="#27374D" fill-rule="evenodd"/><text fill="#00B050" font-family="Calibri,Calibri_MSFontService,sans-serif" font-weight="700" font-size="24" transform="matrix(1 0 0 0.999874 1474.79 1346)">YES</text><path d="M1401.5 1408.99C1401.5 1402.55 1406.72 1397.32 1413.17 1397.32L1584.83 1397.32C1591.28 1397.32 1596.5 1402.55 1596.5 1408.99L1596.5 1455.65C1596.5 1462.09 1591.28 1467.32 1584.83 1467.32L1413.17 1467.32C1406.72 1467.32 1401.5 1462.09 1401.5 1455.65Z" stroke="#FFFFFF" stroke-width="2.667" stroke-linejoin="round" stroke-miterlimit="10" fill="#27374D" fill-rule="evenodd"/><text fill="#FFFFFF" font-family="Calibri,Calibri_MSFontService,sans-serif" font-weight="700" font-size="24" transform="matrix(1 0 0 0.999874 1460.09 1425)">Require</text><text fill="#FFFFFF" font-family="Calibri,Calibri_MSFontService,sans-serif" font-weight="700" font-size="24" transform="matrix(1 0 0 0.999874 1414.67 1454)">compliant device</text><path d="M1553 1393.49C1553 1391.47 1554.64 1389.82 1556.67 1389.82L1616.33 1389.82C1618.36 1389.82 1620 1391.47 1620 1393.49L1620 1408.16C1620 1410.18 1618.36 1411.82 1616.33 1411.82L1556.67 1411.82C1554.64 1411.82 1553 1410.18 1553 1408.16Z" fill="#CBD6E5" fill-rule="evenodd"/><text fill="#27374D" font-family="Calibri,Calibri_MSFontService,sans-serif" font-weight="700" font-size="16" transform="matrix(1 0 0 0.999874 1566.25 1406)">action</text><path d="M1722.83 1880.66 1717.83 1633.39 1727.17 1633.2 1732.16 1880.47ZM1747.02 1864.57 1727.64 1887.65 1707.33 1865.37C1705.6 1863.47 1705.74 1860.52 1707.64 1858.78 1709.55 1857.04 1712.5 1857.18 1714.23 1859.09L1730.94 1877.42 1723.92 1877.56 1739.87 1858.57C1741.53 1856.6 1744.48 1856.34 1746.45 1858 1748.42 1859.66 1748.68 1862.6 1747.02 1864.57Z" fill="#FF914D"/><path d="M1694.5 1688.62C1694.5 1685.68 1696.89 1683.29 1699.83 1683.29L1745.17 1683.29C1748.11 1683.29 1750.5 1685.68 1750.5 1688.62L1750.5 1709.95C1750.5 1712.9 1748.11 1715.28 1745.17 1715.28L1699.83 1715.28C1696.89 1715.28 1694.5 1712.9 1694.5 1709.95Z" stroke="#FF914D" stroke-width="2.667" stroke-linejoin="round" stroke-miterlimit="10" fill="#27374D" fill-rule="evenodd"/><text fill="#FF914D" font-family="Calibri,Calibri_MSFontService,sans-serif" font-weight="700" font-size="24" transform="matrix(1 0 0 0.999874 1706.31 1706)">NO</text><path d="M1499.53 1880.67 1493.83 1633.4 1503.17 1633.19 1508.86 1880.46ZM1523.68 1864.52 1504.36 1887.65 1483.99 1865.43C1482.25 1863.53 1482.38 1860.58 1484.28 1858.84 1486.18 1857.1 1489.13 1857.22 1490.87 1859.12L1507.64 1877.41 1500.61 1877.57 1516.51 1858.53C1518.17 1856.56 1521.11 1856.29 1523.09 1857.94 1525.07 1859.6 1525.33 1862.54 1523.68 1864.52Z" fill="#00B050"/><path d="M1465.5 1674.12C1465.5 1670.9 1468.11 1668.29 1471.33 1668.29L1526.67 1668.29C1529.89 1668.29 1532.5 1670.9 1532.5 1674.12L1532.5 1697.45C1532.5 1700.67 1529.89 1703.29 1526.67 1703.29L1471.33 1703.29C1468.11 1703.29 1465.5 1700.67 1465.5 1697.45Z" stroke="#00B050" stroke-width="2.667" stroke-linejoin="round" stroke-miterlimit="10" fill="#27374D" fill-rule="evenodd"/><text fill="#00B050" font-family="Calibri,Calibri_MSFontService,sans-serif" font-weight="700" font-size="24" transform="matrix(1 0 0 0.999874 1481.11 1693)">YES</text><path d="M1407.5 1755.95C1407.5 1749.5 1412.72 1744.28 1419.17 1744.28L1590.83 1744.28C1597.28 1744.28 1602.5 1749.5 1602.5 1755.95L1602.5 1802.61C1602.5 1809.05 1597.28 1814.27 1590.83 1814.27L1419.17 1814.27C1412.72 1814.27 1407.5 1809.05 1407.5 1802.61Z" stroke="#FFFFFF" stroke-width="2.667" stroke-linejoin="round" stroke-miterlimit="10" fill="#27374D" fill-rule="evenodd"/><text fill="#FFFFFF" font-family="Calibri,Calibri_MSFontService,sans-serif" font-weight="700" font-size="24" transform="matrix(1 0 0 0.999874 1448.34 1772)">Block other</text><text fill="#FFFFFF" font-family="Calibri,Calibri_MSFontService,sans-serif" font-weight="700" font-size="24" transform="matrix(1 0 0 0.999874 1454.73 1801)">device IDs</text><path d="M1559 1740.45C1559 1738.42 1560.64 1736.78 1562.67 1736.78L1622.33 1736.78C1624.36 1736.78 1626 1738.42 1626 1740.45L1626 1755.11C1626 1757.14 1624.36 1758.78 1622.33 1758.78L1562.67 1758.78C1560.64 1758.78 1559 1757.14 1559 1755.11Z" fill="#CBD6E5" fill-rule="evenodd"/><text fill="#27374D" font-family="Calibri,Calibri_MSFontService,sans-serif" font-weight="700" font-size="16" transform="matrix(1 0 0 0.999874 1572.57 1753)">action</text><path d="M1727.83 2236.61 1722.83 1989.34 1732.17 1989.16 1737.16 2236.42ZM1752.02 2220.53 1732.64 2243.6 1712.33 2221.33C1710.6 2219.42 1710.74 2216.47 1712.64 2214.74 1714.55 2213 1717.5 2213.14 1719.23 2215.04L1735.94 2233.38 1728.92 2233.52 1744.87 2214.52C1746.53 2212.55 1749.48 2212.29 1751.45 2213.95 1753.42 2215.61 1753.68 2218.55 1752.02 2220.53Z" fill="#FF914D"/><path d="M1699.5 2044.58C1699.5 2041.63 1701.89 2039.24 1704.83 2039.24L1750.17 2039.24C1753.11 2039.24 1755.5 2041.63 1755.5 2044.58L1755.5 2065.91C1755.5 2068.85 1753.11 2071.24 1750.17 2071.24L1704.83 2071.24C1701.89 2071.24 1699.5 2068.85 1699.5 2065.91Z" stroke="#FF914D" stroke-width="2.667" stroke-linejoin="round" stroke-miterlimit="10" fill="#27374D" fill-rule="evenodd"/><text fill="#FF914D" font-family="Calibri,Calibri_MSFontService,sans-serif" font-weight="700" font-size="24" transform="matrix(1 0 0 0.999874 1711.14 2062)">NO</text><path d="M1504.53 2236.63 1498.83 1989.36 1508.17 1989.14 1513.86 2236.41ZM1528.68 2220.47 1509.36 2243.6 1488.99 2221.39C1487.25 2219.49 1487.38 2216.53 1489.28 2214.79 1491.18 2213.05 1494.13 2213.18 1495.87 2215.08L1512.64 2233.37 1505.61 2233.53 1521.51 2214.49C1523.17 2212.51 1526.11 2212.25 1528.09 2213.9 1530.07 2215.55 1530.33 2218.49 1528.68 2220.47Z" fill="#00B050"/><path d="M1470.5 2030.08C1470.5 2026.86 1473.11 2024.24 1476.33 2024.24L1531.67 2024.24C1534.89 2024.24 1537.5 2026.86 1537.5 2030.08L1537.5 2053.41C1537.5 2056.63 1534.89 2059.24 1531.67 2059.24L1476.33 2059.24C1473.11 2059.24 1470.5 2056.63 1470.5 2053.41Z" stroke="#00B050" stroke-width="2.667" stroke-linejoin="round" stroke-miterlimit="10" fill="#27374D" fill-rule="evenodd"/><text fill="#00B050" font-family="Calibri,Calibri_MSFontService,sans-serif" font-weight="700" font-size="24" transform="matrix(1 0 0 0.999874 1485.94 2049)">YES</text><path d="M1412.5 2111.9C1412.5 2105.46 1417.72 2100.24 1424.17 2100.24L1630.83 2100.24C1637.28 2100.24 1642.5 2105.46 1642.5 2111.9L1642.5 2158.56C1642.5 2165 1637.28 2170.23 1630.83 2170.23L1424.17 2170.23C1417.72 2170.23 1412.5 2165 1412.5 2158.56Z" stroke="#FFFFFF" stroke-width="2.667" stroke-linejoin="round" stroke-miterlimit="10" fill="#27374D" fill-rule="evenodd"/><text fill="#FFFFFF" font-family="Calibri,Calibri_MSFontService,sans-serif" font-weight="700" font-size="24" transform="matrix(1 0 0 0.999874 1465.03 2128)">Block invalid</text><text fill="#FFFFFF" font-family="Calibri,Calibri_MSFontService,sans-serif" font-weight="700" font-size="24" transform="matrix(1 0 0 0.999874 1429.01 2157)">extention</text><text fill="#FFFFFF" font-family="Calibri,Calibri_MSFontService,sans-serif" font-weight="700" font-size="24" transform="matrix(1 0 0 0.999874 1528.15 2157)">attributes</text><path d="M1606 2097.4C1606 2095.38 1607.64 2093.74 1609.67 2093.74L1669.33 2093.74C1671.36 2093.74 1673 2095.38 1673 2097.4L1673 2112.07C1673 2114.09 1671.36 2115.73 1669.33 2115.73L1609.67 2115.73C1607.64 2115.73 1606 2114.09 1606 2112.07Z" fill="#CBD6E5" fill-rule="evenodd"/><text fill="#27374D" font-family="Calibri,Calibri_MSFontService,sans-serif" font-weight="700" font-size="16" transform="matrix(1 0 0 0.999874 1619.21 2110)">action</text><path d="M1300 2274.05C1300 2268.34 1304.63 2263.71 1310.33 2263.71L1913.67 2263.71C1919.37 2263.71 1924 2268.34 1924 2274.05L1924 2315.38C1924 2321.08 1919.37 2325.71 1913.67 2325.71L1310.33 2325.71C1304.63 2325.71 1300 2321.08 1300 2315.38Z" fill="#FFFFFF" fill-rule="evenodd"/><text fill="#545454" font-family="Calibri,Calibri_MSFontService,sans-serif" font-weight="700" font-size="33" transform="matrix(1 0 0 0.999874 1313.2 2305)">Can you require a device Operating System?</text><path d="M1732.83 2589.57 1727.83 2342.3 1737.17 2342.11 1742.16 2589.38ZM1757.02 2573.48 1737.64 2596.56 1717.33 2574.28C1715.6 2572.38 1715.74 2569.43 1717.64 2567.69 1719.55 2565.96 1722.5 2566.09 1724.23 2568L1740.94 2586.33 1733.92 2586.47 1749.87 2567.48C1751.53 2565.51 1754.48 2565.25 1756.45 2566.91 1758.42 2568.57 1758.68 2571.51 1757.02 2573.48Z" fill="#FF914D"/><path d="M1704.5 2397.53C1704.5 2394.59 1706.89 2392.2 1709.83 2392.2L1755.17 2392.2C1758.11 2392.2 1760.5 2394.59 1760.5 2397.53L1760.5 2418.86C1760.5 2421.81 1758.11 2424.19 1755.17 2424.19L1709.83 2424.19C1706.89 2424.19 1704.5 2421.81 1704.5 2418.86Z" stroke="#FF914D" stroke-width="2.667" stroke-linejoin="round" stroke-miterlimit="10" fill="#27374D" fill-rule="evenodd"/><text fill="#FF914D" font-family="Calibri,Calibri_MSFontService,sans-serif" font-weight="700" font-size="24" transform="matrix(1 0 0 0.999874 1716.46 2415)">NO</text><path d="M7.11369 4.64365 304.472 687.11 295.916 690.838-1.44272 8.37178ZM-9.13127 28.7255 0.00262447 0.00602239 27.2555 12.8714C29.5862 13.9717 30.5837 16.753 29.4834 19.0837 28.3832 21.4143 25.6018 22.4118 23.2712 21.3115L0.841191 10.7229 7.28055 7.91724-0.236924 31.5543C-1.01806 34.0104-3.64236 35.3682-6.09846 34.5871-8.55457 33.806-9.9124 31.1817-9.13127 28.7255Z" fill="#00B050" transform="matrix(1.00013 0 0 -1 1198.5 3045.18)"/><path d="M1424.5 2410.03C1424.5 2406.81 1427.11 2404.2 1430.33 2404.2L1485.67 2404.2C1488.89 2404.2 1491.5 2406.81 1491.5 2410.03L1491.5 2433.36C1491.5 2436.58 1488.89 2439.19 1485.67 2439.19L1430.33 2439.19C1427.11 2439.19 1424.5 2436.58 1424.5 2433.36Z" stroke="#00B050" stroke-width="2.667" stroke-linejoin="round" stroke-miterlimit="10" fill="#27374D" fill-rule="evenodd"/><text fill="#00B050" font-family="Calibri,Calibri_MSFontService,sans-serif" font-weight="700" font-size="24" transform="matrix(1 0 0 0.999874 1439.71 2429)">YES</text><path d="M1279.5 2495.85C1279.5 2489.41 1284.72 2484.19 1291.17 2484.19L1480.83 2484.19C1487.28 2484.19 1492.5 2489.41 1492.5 2495.85L1492.5 2542.51C1492.5 2548.96 1487.28 2554.18 1480.83 2554.18L1291.17 2554.18C1284.72 2554.18 1279.5 2548.96 1279.5 2542.51Z" stroke="#FFFFFF" stroke-width="2.667" stroke-linejoin="round" stroke-miterlimit="10" fill="#27374D" fill-rule="evenodd"/><text fill="#FFFFFF" font-family="Calibri,Calibri_MSFontService,sans-serif" font-weight="700" font-size="24" transform="matrix(1 0 0 0.999874 1329.54 2512)">Block other</text><text fill="#FFFFFF" font-family="Calibri,Calibri_MSFontService,sans-serif" font-weight="700" font-size="24" transform="matrix(1 0 0 0.999874 1294.26 2541)">Operating Systems</text><path d="M1457 2481.35C1457 2479.33 1458.64 2477.69 1460.67 2477.69L1520.33 2477.69C1522.36 2477.69 1524 2479.33 1524 2481.35L1524 2496.02C1524 2498.04 1522.36 2499.69 1520.33 2499.69L1460.67 2499.69C1458.64 2499.69 1457 2498.04 1457 2496.02Z" fill="#CBD6E5" fill-rule="evenodd"/><text fill="#27374D" font-family="Calibri,Calibri_MSFontService,sans-serif" font-weight="700" font-size="16" transform="matrix(1 0 0 0.999874 1469.67 2494)">action</text><path d="M7.88763 3.14042 198.929 276.53 191.279 281.876 0.237116 8.48651ZM-3.27222 29.9638 0.00376271 0.00538509 29.2622 7.22916C31.7644 7.84694 33.292 10.3762 32.6742 12.8784 32.0565 15.3806 29.5272 16.9082 27.025 16.2904L2.94444 10.345 8.70204 6.32168 6.0058 30.9784C5.72564 33.5404 3.42156 35.3903 0.859508 35.1101-1.70255 34.8299-3.55239 32.5259-3.27222 29.9638Z" fill="#00B050" transform="matrix(1.00013 0 0 -1 1363.5 3047.35)"/><path d="M1498.5 2789.98C1498.5 2786.76 1501.11 2784.15 1504.33 2784.15L1559.67 2784.15C1562.89 2784.15 1565.5 2786.76 1565.5 2789.98L1565.5 2813.31C1565.5 2816.53 1562.89 2819.14 1559.67 2819.14L1504.33 2819.14C1501.11 2819.14 1498.5 2816.53 1498.5 2813.31Z" stroke="#00B050" stroke-width="2.667" stroke-linejoin="round" stroke-miterlimit="10" fill="#27374D" fill-rule="evenodd"/><text fill="#00B050" font-family="Calibri,Calibri_MSFontService,sans-serif" font-weight="700" font-size="24" transform="matrix(1 0 0 0.999874 1514.09 2808)">YES</text><path d="M1350.5 2851.81C1350.5 2844.81 1356.17 2839.14 1363.17 2839.14L1540.83 2839.14C1547.83 2839.14 1553.5 2844.81 1553.5 2851.81L1553.5 2902.47C1553.5 2909.46 1547.83 2915.13 1540.83 2915.13L1363.17 2915.13C1356.17 2915.13 1350.5 2909.46 1350.5 2902.47Z" stroke="#FFFFFF" stroke-width="2.667" stroke-linejoin="round" stroke-miterlimit="10" fill="#27374D" fill-rule="evenodd"/><text fill="#FFFFFF" font-family="Calibri,Calibri_MSFontService,sans-serif" font-weight="700" font-size="24" transform="matrix(1 0 0 0.999874 1395.21 2870)">Block other</text><text fill="#FFFFFF" font-family="Calibri,Calibri_MSFontService,sans-serif" font-weight="700" font-size="24" transform="matrix(1 0 0 0.999874 1366.24 2899)">device properties</text><path d="M1527 2836.14C1527 2834.21 1528.57 2832.64 1530.5 2832.64L1590.5 2832.64C1592.43 2832.64 1594 2834.21 1594 2836.14L1594 2850.14C1594 2852.07 1592.43 2853.64 1590.5 2853.64L1530.5 2853.64C1528.57 2853.64 1527 2852.07 1527 2850.14Z" fill="#CBD6E5" fill-rule="evenodd"/><text fill="#27374D" font-family="Calibri,Calibri_MSFontService,sans-serif" font-weight="700" font-size="16" transform="matrix(1 0 0 0.999874 1540.36 2848)">action</text><path d="M8.27241 1.90899 265.679 271.64 258.927 278.084 1.52029 8.35259ZM1.30582 30.1137 0.00453494 0.00475189 30.0197 2.71174C32.5866 2.94325 34.4799 5.21181 34.2483 7.77872 34.0168 10.3456 31.7483 12.2389 29.1814 12.0073L4.47796 9.77941 9.55945 4.93011 10.6304 29.7106C10.7417 32.2856 8.74456 34.4632 6.16963 34.5745 3.59471 34.6857 1.4171 32.6886 1.30582 30.1137Z" fill="#FF914D" transform="matrix(1.00013 0 0 -1 1491.5 3045.01)"/><path d="M1660.5 2831.48C1660.5 2828.53 1662.89 2826.14 1665.83 2826.14L1711.17 2826.14C1714.11 2826.14 1716.5 2828.53 1716.5 2831.48L1716.5 2852.81C1716.5 2855.75 1714.11 2858.14 1711.17 2858.14L1665.83 2858.14C1662.89 2858.14 1660.5 2855.75 1660.5 2852.81Z" stroke="#FF914D" stroke-width="2.667" stroke-linejoin="round" stroke-miterlimit="10" fill="#27374D" fill-rule="evenodd"/><text fill="#FF914D" font-family="Calibri,Calibri_MSFontService,sans-serif" font-weight="700" font-size="24" transform="matrix(1 0 0 0.999874 1671.75 2849)">NO</text><path d="M4.66667 7.09338 4.66677 296.822-4.66656 296.822-4.66666 7.09339ZM-19.8453 22.687-2.97446e-07 0.00656988 19.8454 22.687C21.5426 24.6266 21.346 27.5748 19.4064 29.272 17.4667 30.9692 14.5185 30.7727 12.8213 28.833L-3.51202 10.1664 3.51203 10.1664-12.8213 28.833C-14.5185 30.7727-17.4667 30.9692-19.4063 29.272-21.346 27.5748-21.5425 24.6266-19.8453 22.687Z" fill="#FF914D" transform="matrix(1.00013 0 0 -1 1357.5 3515.92)"/><path d="M1332.5 3279.42C1332.5 3276.47 1334.89 3274.09 1337.83 3274.09L1384.17 3274.09C1387.11 3274.09 1389.5 3276.47 1389.5 3279.42L1389.5 3300.75C1389.5 3303.7 1387.11 3306.08 1384.17 3306.08L1337.83 3306.08C1334.89 3306.08 1332.5 3303.7 1332.5 3300.75Z" stroke="#FF914D" stroke-width="2.667" stroke-linejoin="round" stroke-miterlimit="10" fill="#27374D" fill-rule="evenodd"/><text fill="#FF914D" font-family="Calibri,Calibri_MSFontService,sans-serif" font-weight="700" font-size="24" transform="matrix(1 0 0 0.999874 1344.58 3297)">NO</text><path d="M1185.13 3509.35 1179.83 3220.18 1189.17 3220.01 1194.46 3509.18ZM1209.35 3493.31 1189.92 3516.35 1169.66 3494.03C1167.93 3492.13 1168.07 3489.17 1169.98 3487.44 1171.89 3485.71 1174.84 3485.85 1176.58 3487.76L1193.25 3506.12 1186.23 3506.25 1202.22 3487.29C1203.88 3485.32 1206.82 3485.07 1208.79 3486.73 1210.76 3488.39 1211.01 3491.34 1209.35 3493.31Z" fill="#00B050"/><path d="M1156.5 3274.09C1156.5 3270.77 1159.19 3268.09 1162.5 3268.09L1217.5 3268.09C1220.81 3268.09 1223.5 3270.77 1223.5 3274.09L1223.5 3298.08C1223.5 3301.4 1220.81 3304.08 1217.5 3304.08L1162.5 3304.08C1159.19 3304.08 1156.5 3301.4 1156.5 3298.08Z" stroke="#00B050" stroke-width="2.667" stroke-linejoin="round" stroke-miterlimit="10" fill="#27374D" fill-rule="evenodd"/><text fill="#00B050" font-family="Calibri,Calibri_MSFontService,sans-serif" font-weight="700" font-size="24" transform="matrix(1 0 0 0.999874 1172.26 3293)">YES</text><path d="M1050.5 3375.57C1050.5 3370.33 1054.75 3366.08 1060 3366.08L1270 3366.08C1275.25 3366.08 1279.5 3370.33 1279.5 3375.57L1279.5 3413.57C1279.5 3418.82 1275.25 3423.07 1270 3423.07L1060 3423.07C1054.75 3423.07 1050.5 3418.82 1050.5 3413.57Z" stroke="#FFFFFF" stroke-width="2.667" stroke-linejoin="round" stroke-miterlimit="10" fill="#27374D" fill-rule="evenodd"/><text fill="#FFFFFF" font-family="Calibri,Calibri_MSFontService,sans-serif" font-weight="700" font-size="24" transform="matrix(1 0 0 0.999874 1070.38 3402)">Block location or IP</text><path d="M1253 3363.24C1253 3361.22 1254.64 3359.58 1256.67 3359.58L1316.33 3359.58C1318.36 3359.58 1320 3361.22 1320 3363.24L1320 3377.91C1320 3379.93 1318.36 3381.57 1316.33 3381.57L1256.67 3381.57C1254.64 3381.57 1253 3379.93 1253 3377.91Z" fill="#CBD6E5" fill-rule="evenodd"/><text fill="#27374D" font-family="Calibri,Calibri_MSFontService,sans-serif" font-weight="700" font-size="16" transform="matrix(1 0 0 0.999874 1266.09 3376)">action</text><path d="M4.66667 7.09338 4.66677 296.822-4.66656 296.822-4.66666 7.09339ZM-19.8453 22.687-2.97446e-07 0.00656988 19.8454 22.687C21.5426 24.6266 21.346 27.5748 19.4064 29.272 17.4667 30.9692 14.5185 30.7727 12.8213 28.833L-3.51202 10.1664 3.51203 10.1664-12.8213 28.833C-14.5185 30.7727-17.4667 30.9692-19.4063 29.272-21.346 27.5748-21.5425 24.6266-19.8453 22.687Z" fill="#FF914D" transform="matrix(1.00013 0 0 -1 1355.5 3983.86)"/><path d="M1330.5 3747.36C1330.5 3744.42 1332.89 3742.03 1335.83 3742.03L1381.17 3742.03C1384.11 3742.03 1386.5 3744.42 1386.5 3747.36L1386.5 3768.69C1386.5 3771.64 1384.11 3774.02 1381.17 3774.02L1335.83 3774.02C1332.89 3774.02 1330.5 3771.64 1330.5 3768.69Z" stroke="#FF914D" stroke-width="2.667" stroke-linejoin="round" stroke-miterlimit="10" fill="#27374D" fill-rule="evenodd"/><text fill="#FF914D" font-family="Calibri,Calibri_MSFontService,sans-serif" font-weight="700" font-size="24" transform="matrix(1 0 0 0.999874 1341.87 3765)">NO</text><path d="M1183.13 3977.29 1177.83 3688.12 1187.17 3687.95 1192.46 3977.12ZM1207.35 3961.25 1187.92 3984.29 1167.66 3961.98C1165.93 3960.07 1166.07 3957.12 1167.98 3955.38 1169.89 3953.65 1172.84 3953.79 1174.58 3955.7L1191.25 3974.07 1184.23 3974.19 1200.22 3955.23C1201.88 3953.26 1204.82 3953.01 1206.79 3954.67 1208.76 3956.33 1209.02 3959.28 1207.35 3961.25Z" fill="#00B050"/><path d="M1153.5 3742.03C1153.5 3738.72 1156.19 3736.03 1159.5 3736.03L1214.5 3736.03C1217.81 3736.03 1220.5 3738.72 1220.5 3742.03L1220.5 3766.03C1220.5 3769.34 1217.81 3772.02 1214.5 3772.02L1159.5 3772.02C1156.19 3772.02 1153.5 3769.34 1153.5 3766.03Z" stroke="#00B050" stroke-width="2.667" stroke-linejoin="round" stroke-miterlimit="10" fill="#27374D" fill-rule="evenodd"/><text fill="#00B050" font-family="Calibri,Calibri_MSFontService,sans-serif" font-weight="700" font-size="24" transform="matrix(1 0 0 0.999874 1169.55 3761)">YES</text><path d="M1059.5 3843.52C1059.5 3838.27 1063.75 3834.02 1069 3834.02L1249 3834.02C1254.25 3834.02 1258.5 3838.27 1258.5 3843.52L1258.5 3881.51C1258.5 3886.76 1254.25 3891.01 1249 3891.01L1069 3891.01C1063.75 3891.01 1059.5 3886.76 1059.5 3881.51Z" stroke="#FFFFFF" stroke-width="2.667" stroke-linejoin="round" stroke-miterlimit="10" fill="#27374D" fill-rule="evenodd"/><text fill="#FFFFFF" font-family="Calibri,Calibri_MSFontService,sans-serif" font-weight="700" font-size="24" transform="matrix(1 0 0 0.999874 1085.04 3855)">Block access to</text><text fill="#FFFFFF" font-family="Calibri,Calibri_MSFontService,sans-serif" font-weight="700" font-size="24" transform="matrix(1 0 0 0.999874 1098.95 3884)">applications</text><path d="M1232 3831.18C1232 3829.16 1233.64 3827.52 1235.67 3827.52L1295.33 3827.52C1297.36 3827.52 1299 3829.16 1299 3831.18L1299 3845.85C1299 3847.87 1297.36 3849.52 1295.33 3849.52L1235.67 3849.52C1233.64 3849.52 1232 3847.87 1232 3845.85Z" fill="#CBD6E5" fill-rule="evenodd"/><text fill="#27374D" font-family="Calibri,Calibri_MSFontService,sans-serif" font-weight="700" font-size="16" transform="matrix(1 0 0 0.999874 1245.12 3844)">action</text><path d="M4.66667 7.09338 4.66677 296.822-4.66656 296.822-4.66666 7.09339ZM-19.8453 22.687-2.97446e-07 0.00656988 19.8454 22.687C21.5426 24.6266 21.346 27.5748 19.4064 29.272 17.4667 30.9692 14.5185 30.7727 12.8213 28.833L-3.51202 10.1664 3.51203 10.1664-12.8213 28.833C-14.5185 30.7727-17.4667 30.9692-19.4063 29.272-21.346 27.5748-21.5425 24.6266-19.8453 22.687Z" fill="#FF914D" transform="matrix(1.00013 0 0 -1 1360.5 4431.8)"/><path d="M1335.5 4194.3C1335.5 4191.36 1337.89 4188.97 1340.83 4188.97L1386.17 4188.97C1389.11 4188.97 1391.5 4191.36 1391.5 4194.3L1391.5 4215.64C1391.5 4218.58 1389.11 4220.97 1386.17 4220.97L1340.83 4220.97C1337.89 4220.97 1335.5 4218.58 1335.5 4215.64Z" stroke="#FF914D" stroke-width="2.667" stroke-linejoin="round" stroke-miterlimit="10" fill="#27374D" fill-rule="evenodd"/><text fill="#FF914D" font-family="Calibri,Calibri_MSFontService,sans-serif" font-weight="700" font-size="24" transform="matrix(1 0 0 0.999874 1346.85 4212)">NO</text><path d="M1188.13 4424.23 1182.83 4135.06 1192.17 4134.89 1197.46 4424.06ZM1212.35 4408.19 1192.92 4431.23 1172.66 4408.92C1170.93 4407.01 1171.07 4404.06 1172.98 4402.33 1174.89 4400.59 1177.84 4400.74 1179.58 4402.65L1196.25 4421.01 1189.23 4421.14 1205.22 4402.18C1206.88 4400.21 1209.82 4399.96 1211.79 4401.62 1213.76 4403.28 1214.02 4406.22 1212.35 4408.19Z" fill="#00B050"/><path d="M1158.5 4188.97C1158.5 4185.66 1161.19 4182.97 1164.5 4182.97L1219.5 4182.97C1222.81 4182.97 1225.5 4185.66 1225.5 4188.97L1225.5 4212.97C1225.5 4216.28 1222.81 4218.97 1219.5 4218.97L1164.5 4218.97C1161.19 4218.97 1158.5 4216.28 1158.5 4212.97Z" stroke="#00B050" stroke-width="2.667" stroke-linejoin="round" stroke-miterlimit="10" fill="#27374D" fill-rule="evenodd"/><text fill="#00B050" font-family="Calibri,Calibri_MSFontService,sans-serif" font-weight="700" font-size="24" transform="matrix(1 0 0 0.999874 1174.53 4208)">YES</text><path d="M1064.5 4291.46C1064.5 4286.21 1068.75 4281.96 1074 4281.96L1254 4281.96C1259.25 4281.96 1263.5 4286.21 1263.5 4291.46L1263.5 4329.45C1263.5 4334.7 1259.25 4338.95 1254 4338.95L1074 4338.95C1068.75 4338.95 1064.5 4334.7 1064.5 4329.45Z" stroke="#FFFFFF" stroke-width="2.667" stroke-linejoin="round" stroke-miterlimit="10" fill="#27374D" fill-rule="evenodd"/><text fill="#FFFFFF" font-family="Calibri,Calibri_MSFontService,sans-serif" font-weight="700" font-size="24" transform="matrix(1 0 0 0.999874 1090.03 4303)">Block access to</text><text fill="#FFFFFF" font-family="Calibri,Calibri_MSFontService,sans-serif" font-weight="700" font-size="24" transform="matrix(1 0 0 0.999874 1103.93 4332)">applications</text><path d="M1237 4278.96C1237 4277.03 1238.57 4275.46 1240.5 4275.46L1300.5 4275.46C1302.43 4275.46 1304 4277.03 1304 4278.96L1304 4292.96C1304 4294.89 1302.43 4296.46 1300.5 4296.46L1240.5 4296.46C1238.57 4296.46 1237 4294.89 1237 4292.96Z" fill="#CBD6E5" fill-rule="evenodd"/><text fill="#27374D" font-family="Calibri,Calibri_MSFontService,sans-serif" font-weight="700" font-size="16" transform="matrix(1 0 0 0.999874 1250.1 4291)">action</text><path d="M4.66667 7.09338 4.66677 296.822-4.66656 296.822-4.66666 7.09339ZM-19.8453 22.687-2.97446e-07 0.00656988 19.8454 22.687C21.5426 24.6266 21.346 27.5748 19.4064 29.272 17.4667 30.9692 14.5185 30.7727 12.8213 28.833L-3.51202 10.1664 3.51203 10.1664-12.8213 28.833C-14.5185 30.7727-17.4667 30.9692-19.4063 29.272-21.346 27.5748-21.5425 24.6266-19.8453 22.687Z" fill="#FF914D" transform="matrix(1.00013 0 0 -1 1362.5 4910.74)"/><path d="M1337.5 4674.24C1337.5 4671.3 1339.89 4668.91 1342.83 4668.91L1388.17 4668.91C1391.11 4668.91 1393.5 4671.3 1393.5 4674.24L1393.5 4695.57C1393.5 4698.52 1391.11 4700.91 1388.17 4700.91L1342.83 4700.91C1339.89 4700.91 1337.5 4698.52 1337.5 4695.57Z" stroke="#FF914D" stroke-width="2.667" stroke-linejoin="round" stroke-miterlimit="10" fill="#27374D" fill-rule="evenodd"/><text fill="#FF914D" font-family="Calibri,Calibri_MSFontService,sans-serif" font-weight="700" font-size="24" transform="matrix(1 0 0 0.999874 1349.14 4691)">NO</text><path d="M1190.13 4903.17 1184.83 4614 1194.17 4613.83 1199.46 4903ZM1214.35 4887.13 1194.92 4910.17 1174.66 4887.86C1172.93 4885.95 1173.07 4883 1174.98 4881.27 1176.89 4879.53 1179.84 4879.68 1181.58 4881.58L1198.25 4899.95 1191.23 4900.08 1207.22 4881.12C1208.88 4879.15 1211.82 4878.89 1213.79 4880.56 1215.76 4882.22 1216.01 4885.16 1214.35 4887.13Z" fill="#00B050"/><path d="M1161.5 4668.75C1161.5 4665.52 1164.11 4662.91 1167.33 4662.91L1222.67 4662.91C1225.89 4662.91 1228.5 4665.52 1228.5 4668.75L1228.5 4692.08C1228.5 4695.3 1225.89 4697.91 1222.67 4697.91L1167.33 4697.91C1164.11 4697.91 1161.5 4695.3 1161.5 4692.08Z" stroke="#00B050" stroke-width="2.667" stroke-linejoin="round" stroke-miterlimit="10" fill="#27374D" fill-rule="evenodd"/><text fill="#00B050" font-family="Calibri,Calibri_MSFontService,sans-serif" font-weight="700" font-size="24" transform="matrix(1 0 0 0.999874 1176.82 4687)">YES</text><path d="M1066.5 4770.4C1066.5 4765.15 1070.75 4760.9 1076 4760.9L1256 4760.9C1261.25 4760.9 1265.5 4765.15 1265.5 4770.4L1265.5 4808.39C1265.5 4813.64 1261.25 4817.89 1256 4817.89L1076 4817.89C1070.75 4817.89 1066.5 4813.64 1066.5 4808.39Z" stroke="#FFFFFF" stroke-width="2.667" stroke-linejoin="round" stroke-miterlimit="10" fill="#27374D" fill-rule="evenodd"/><text fill="#FFFFFF" font-family="Calibri,Calibri_MSFontService,sans-serif" font-weight="700" font-size="24" transform="matrix(1 0 0 0.999874 1092.32 4782)">Block access to</text><text fill="#FFFFFF" font-family="Calibri,Calibri_MSFontService,sans-serif" font-weight="700" font-size="24" transform="matrix(1 0 0 0.999874 1106.22 4811)">applications</text><path d="M1239 4758.07C1239 4756.04 1240.64 4754.4 1242.67 4754.4L1302.33 4754.4C1304.36 4754.4 1306 4756.04 1306 4758.07L1306 4772.73C1306 4774.76 1304.36 4776.4 1302.33 4776.4L1242.67 4776.4C1240.64 4776.4 1239 4774.76 1239 4772.73Z" fill="#CBD6E5" fill-rule="evenodd"/><text fill="#27374D" font-family="Calibri,Calibri_MSFontService,sans-serif" font-weight="700" font-size="16" transform="matrix(1 0 0 0.999874 1252.39 4770)">action</text><path d="M1163 4942.88C1163 4937.63 1167.25 4933.38 1172.5 4933.38L1385.5 4933.38C1390.75 4933.38 1395 4937.63 1395 4942.88L1395 4980.87C1395 4986.12 1390.75 4990.37 1385.5 4990.37L1172.5 4990.37C1167.25 4990.37 1163 4986.12 1163 4980.87Z" fill="#FFFFFF" fill-rule="evenodd"/><text fill="#545454" font-family="Calibri,Calibri_MSFontService,sans-serif" font-weight="700" font-size="33" transform="matrix(1 0 0 0.999874 1250.01 4972)">END</text></g></svg>